<svg xmlns="http://www.w3.org/2000/svg" width="480" height="480" viewBox="0 0 480 480">
  <defs>
    <linearGradient id="g" x1="0" y1="0" x2="1" y2="1">
      <stop stop-color="#60a5fa" offset="0"></stop>
      <stop stop-color="#41d88c" offset="1"></stop>
    </linearGradient>
  </defs>
  <g fill="none" stroke="url(#g)" stroke-width="2" opacity="0.35">
    <path d="M40 40 C 160 120, 320 -40, 440 40"></path>
    <path d="M40 120 C 160 200, 320 40, 440 120"></path>
    <path d="M40 200 C 160 280, 320 120, 440 200"></path>
    <path d="M40 280 C 160 360, 320 200, 440 280"></path>
    <path d="M40 360 C 160 440, 320 280, 440 360"></path>
  </g>
  <g stroke="url(#g)" stroke-width="1.5" opacity="0.25">
    <circle cx="90" cy="40" r="4"></circle><circle cx="390" cy="40" r="4"></circle>
    <circle cx="90" cy="120" r="4"></circle><circle cx="390" cy="120" r="4"></circle>
    <circle cx="90" cy="200" r="4"></circle><circle cx="390" cy="200" r="4"></circle>
    <circle cx="90" cy="280" r="4"></circle><circle cx="390" cy="280" r="4"></circle>
    <circle cx="90" cy="360" r="4"></circle><circle cx="390" cy="360" r="4"></circle>
  </g>
</svg>
